# xmcd
# 
# Track frame offsets:
#     150
#     16881
#     36006
#     50648
#     69315
#     84764
#     107002
#     124062
#     144720
#     158628
#     173082
# 
# Disc length: 2530
# 
# Revision: 1
# Processed by: cddbd v1.5.2PL0 Copyright (c) Steve Scherf et al.
# Submitted via: fre:ac v1.0.27
# 
DISCID=8409e00b
DTITLE=Gary Hoey - Dust and Bones
DYEAR=2016
DGENRE=Rock
TTITLE0=Boxcar Blues
TTITLE1=Who's Your Daddy
TTITLE2=Born To Love You
TTITLE3=Dust and Bones
TTITLE4=Steamroller (tribute to Johnny Winter)
TTITLE5=Coming Home (feat. Lita Ford)
TTITLE6=Ghost Of Yesterday
TTITLE7=This Time Tomorrow
TTITLE8=Back Up Against The Wall
TTITLE9=Blind Faith
TTITLE10=Soul Surfer
EXTD=
EXTT0=
EXTT1=
EXTT2=
EXTT3=
EXTT4=
EXTT5=
EXTT6=
EXTT7=
EXTT8=
EXTT9=
EXTT10=
PLAYORDER=
